<svg width="57" height="56" viewBox="0 0 57 56" fill="none" xmlns="http://www.w3.org/2000/svg">
<path d="M17.9193 16.3088C17.4357 16.7737 16.9765 17.2632 16.5434 17.7754C14.6444 19.8821 13.3795 22.4826 12.8945 25.2771C12.4094 28.0716 12.7241 30.9462 13.8022 33.5696C14.7709 36.2478 16.4851 38.5932 18.7427 40.3293C21.0004 42.0653 23.7073 43.1197 26.5444 43.3681C29.3297 43.704 32.1536 43.2603 34.7017 42.0865C34.9429 41.967 35.2181 41.935 35.4804 41.9957C39.3629 43.1245 43.4752 43.204 47.3985 42.2262C47.629 42.1808 47.8106 42.1354 48.1772 42.09C48.041 42.3205 47.9467 42.4392 47.8559 42.5929C45.9066 45.2443 43.4292 47.4633 40.5799 49.11C37.7306 50.7567 34.5711 51.7955 31.3005 52.1609C25.6654 52.8913 19.9521 51.63 15.1483 48.595C10.3445 45.5599 6.75208 40.9419 4.99198 35.5391C3.87274 32.3535 3.4965 28.9542 3.89201 25.6009C4.25501 23.4188 5.26047 21.3945 6.77987 19.7868C8.0592 18.3024 9.70771 17.1819 11.5588 16.5387C13.4099 15.8955 15.398 15.7524 17.3221 16.1237C17.5037 16.1691 17.6434 16.2145 17.9193 16.3088ZM39.3705 39.0066C40.24 37.6797 41.2491 36.4889 41.9824 35.1131C43.4366 32.3013 43.9977 29.1125 43.5908 25.9732C43.1839 22.8339 41.8283 19.8936 39.7053 17.5455C37.5823 15.1974 34.7931 13.5533 31.7105 12.8331C28.628 12.1129 25.399 12.3509 22.4553 13.5152C22.1883 13.6067 21.8983 13.6067 21.6312 13.5152C19.7393 12.4106 17.5958 11.8094 15.4054 11.769C13.215 11.7287 11.0508 12.2505 9.11949 13.2847C8.96113 13.3803 8.79244 13.4577 8.61665 13.5152C8.58062 13.5125 8.54694 13.4963 8.52236 13.4698C9.98234 11.4645 11.7501 9.70259 13.7603 8.24932C17.0651 5.82089 20.929 4.26521 24.9945 3.72619C29.06 3.18717 33.1958 3.68224 37.0192 5.16558C40.8426 6.64893 44.2301 9.07263 46.8684 12.2125C49.5066 15.3523 51.3103 19.1068 52.1127 23.1286C52.6847 25.607 52.7783 28.1718 52.3885 30.6852C52.1491 32.5514 51.3516 34.3017 50.1004 35.7068C48.8492 37.112 47.2027 38.1063 45.3766 38.5596C43.4276 39.125 41.3829 39.2819 39.3705 39.0206V39.0066ZM24.2781 15.5755C25.398 15.3442 26.5301 15.1763 27.6688 15.0726C30.8402 14.9222 33.9546 15.9532 36.4096 17.9664C38.8646 19.9796 40.4857 22.8317 40.9593 25.9711C41.3545 28.2229 41.1246 30.5399 40.2947 32.6702C39.4647 34.8005 38.0665 36.6623 36.2521 38.0533C36.1287 38.1439 35.9853 38.2036 35.834 38.2273C35.6827 38.251 35.5279 38.238 35.3826 38.1895C34.4252 37.8423 33.6271 37.1583 33.1373 36.2654C31.806 34.2181 30.7571 32.0004 30.0189 29.6726C29.2856 27.4796 28.6431 25.2378 27.9552 22.9924C27.2505 20.5077 26.0849 18.1777 24.5191 16.1237C24.4737 16.0329 24.4248 15.9875 24.3794 15.8967C24.3172 15.8008 24.2822 15.6898 24.2781 15.5755ZM20.4754 38.3781C19.7421 37.6447 19.0088 37.0057 18.3208 36.2829C17.2014 34.9547 16.3613 33.4145 15.8507 31.7542C15.3401 30.094 15.1695 28.3479 15.3491 26.6202C15.5287 24.8925 16.0549 23.2188 16.896 21.6991C17.7372 20.1794 18.8762 18.8449 20.2449 17.7754C20.3862 17.6261 20.5802 17.5377 20.7857 17.5292C20.9911 17.5208 21.1918 17.5928 21.3449 17.73C22.5088 18.4876 23.4435 19.549 24.0477 20.7995C24.8264 22.4023 25.5597 24.0051 26.2476 25.6533C26.3296 25.9592 26.2973 26.2844 26.1568 26.5682C24.8718 29.1313 23.5448 31.6525 22.3157 34.2156C21.6312 35.4937 21.1354 36.866 20.4859 38.3781H20.4754ZM27.1765 28.5342C28.0134 32.7749 29.7482 36.7874 32.2643 40.3021C31.1189 40.4872 30.1691 40.7142 29.146 40.8504C27.5034 40.9694 25.8531 40.7835 24.2781 40.3021C24.1086 40.2762 23.956 40.1849 23.8529 40.0479C23.7498 39.9109 23.7044 39.7389 23.7264 39.5688C23.6473 38.0208 23.8973 36.4736 24.4597 35.0293C25.2384 32.969 26.1114 30.9541 26.9809 28.8939L27.1765 28.5342Z" fill="white"/>
</svg>
