<svg width="57" height="56" viewBox="0 0 57 56" fill="none" xmlns="http://www.w3.org/2000/svg">
<g clip-path="url(#clip0_287_25)">
<path d="M39.9021 26.6896H41.4501L41.2489 28.5814H39.7063L39.9021 26.6896ZM52.9706 16.0766V39.7767C52.9181 41.2734 52.1573 42.6114 50.8208 43.5004L30.2958 55.3503C29.1135 56.0331 27.1784 56.0331 25.9961 55.3503L5.47114 43.5004C4.22545 42.6837 3.41328 41.3668 3.32129 39.7767V16.0766C3.32129 14.7112 4.28863 13.0355 5.47114 12.3529L25.9961 0.502909C27.1784 -0.179843 29.1135 -0.179843 30.2958 0.502909L50.8208 12.3529C52.0623 13.191 52.9226 14.64 52.9706 16.0766ZM42.4784 36.2061L35.3161 32.0617C30.5383 39.7097 19.9868 35.9723 19.8711 27.9267C20.2564 19.197 30.9919 16.6399 35.3156 23.7912L42.4779 19.6466C33.1437 4.63098 11.4989 11.7666 11.5962 27.9267C12.011 45.3486 34.2523 50.4865 42.4784 36.2061ZM44.1883 25.3722H42.9603L43.1817 23.2343H41.8176L41.5902 25.3722H40.0385L40.2598 23.2343H38.8958L38.6684 25.3722H37.368V26.6896H38.5282L38.327 28.5814H36.9861V29.8987H38.1869L37.9381 32.237H39.3278L39.5699 29.8987H41.1087L40.86 32.237H42.2497L42.4917 29.8987H43.8064V28.5814H42.6281L42.824 26.6896H44.1883V25.3722Z" fill="white"/>
</g>
<defs>
<clipPath id="clip0_287_25">
<rect width="55.8716" height="55.8716" fill="white" transform="translate(0.211182 -0.00915527)"/>
</clipPath>
</defs>
</svg>
