<svg width="58" height="58" viewBox="0 0 58 58" fill="none" xmlns="http://www.w3.org/2000/svg">
<g clip-path="url(#clip0_287_16)">
<path d="M21.3636 44.1727C20.1238 44.4984 17.8984 45.3178 18.5016 46.9951C19.6539 48.817 22.1196 49.0827 24.0671 49.4766C29.0056 50.1685 34.1351 49.4276 38.6392 47.2805C37.0921 46.7941 35.6428 45.8755 34.2152 45.3143C30.0572 46.162 25.6202 46.5187 21.4825 45.4094C21.6942 44.9154 23.5908 43.7804 22.0079 44.1253C21.7931 44.1411 21.5784 44.1568 21.3636 44.1727ZM20.0313 38.1379C18.7918 38.6368 16.585 39.2314 16.7966 40.9603C17.5629 42.6909 19.8668 42.8494 21.487 43.2275C27.6436 44.1214 33.9573 43.3346 39.8676 41.4915C38.5633 41.0031 37.1705 40.5423 36.2047 39.4857C30.9669 40.524 25.4352 41.046 20.1976 39.9376C19.4609 39.5494 20.9521 38.824 21.0348 38.4319C22.5136 37.166 20.5191 38.2467 20.0313 38.1379ZM40.8591 12.7694C36.4968 14.0859 31.7709 15.889 29.1816 19.8398C27.3374 22.7148 28.676 26.4059 30.8386 28.6956C32.3374 30.17 31.7464 32.5891 30.2122 33.7934C28.6045 35.1977 30.4608 34.9515 31.3935 34.2771C33.6735 32.8693 36.2203 30.2974 35.2466 27.3635C34.4804 25.1481 31.6046 23.312 32.6206 20.723C34.594 17.1618 38.7052 15.5953 41.8018 13.1777C42.993 12.3824 41.3201 12.8774 40.8591 12.7694ZM12.5702 50.8792C14.4748 49.6132 16.8215 49.2848 19.0713 49.5948C18.0172 48.8307 17.0533 47.9664 15.6626 48.1598C13.0498 48.4146 10.2517 49.0979 8.34537 51.0138C7.40021 52.1258 8.74104 53.396 9.87551 53.5271C19.5411 55.3465 29.6123 55.6134 39.3199 53.9155C41.8543 53.256 44.8838 52.9656 46.717 50.9188C47.5719 49.4692 45.561 48.4076 44.3824 48.3161C43.8955 48.4378 45.2474 49.3008 45.2106 49.9357C44.0237 51.2459 41.9227 51.2093 40.2634 51.6244C27.9483 53.2271 15.7838 52.5868 12.5702 50.8792ZM38.9486 35.6498C39.888 35.1419 40.882 34.7433 41.66 33.9849C38.6123 33.8026 35.6314 34.8053 32.5992 34.9126C27.6747 35.2147 22.6292 35.7774 17.7486 34.8411C16.9938 34.6665 18.3624 34.2729 18.5573 34.1196C20.3127 33.3393 22.2521 33.1652 23.9404 32.2169C23.2404 32.0576 22.5615 31.7615 21.8314 31.8522C18.6685 32.0285 15.4108 32.806 12.7694 34.5716C11.8349 35.4558 12.9989 36.6029 13.9666 36.7201C20.6809 38.5791 35.9175 37.6442 38.9486 35.6498ZM44.0066 31.329C42.405 31.3223 40.8669 32.0886 40.2164 33.6271C39.4661 34.6445 41.4734 33.161 42.1435 33.1764C44.2819 32.2889 46.872 34.6153 45.8539 36.8075C44.8024 39.4711 41.9525 40.7494 39.8126 42.2779C38.0328 43.7362 38.6012 43.8039 40.501 43.1136C43.9406 42.1075 48.0632 40.4968 49.1916 36.7518C50.0049 33.6691 47.0079 31.0429 44.0066 31.329ZM33.2479 0.192749C33.3853 0.827003 33.5227 1.46172 33.6601 2.09597C36.0485 11.5666 24.1508 13.7366 21.3079 20.4503C20.1379 23.8817 22.8492 27.013 25.018 29.3558C26.5103 30.8685 28.0256 32.404 29.7673 33.6586C28.9728 29.6319 24.4885 27.0373 24.8915 22.7088C25.6915 18.5516 30.0501 16.727 32.5504 13.7262C36.7032 9.11599 37.6241 4.2951 33.2479 0.192749ZM14.1088 54.8742C16.5936 57.2819 20.2999 57.1194 23.4959 57.4984C30.7915 57.8135 38.2847 57.8797 45.2986 55.6829C47.2995 55.0323 49.8553 53.4579 49.2949 50.9663C49.4609 49.4753 48.7072 51.4375 48.3903 51.695C44.0565 55.9911 24.7509 56.5807 14.1088 54.8742Z" fill="white"/>
</g>
<defs>
<clipPath id="clip0_287_16">
<rect width="57.4679" height="57.4679" fill="white" transform="translate(0 0.192749)"/>
</clipPath>
</defs>
</svg>
