<svg width="65" height="64" viewBox="0 0 65 64" fill="none" xmlns="http://www.w3.org/2000/svg">
<path d="M8.74316 7.98169H56.6331V55.8716H8.74316V7.98169ZM21.3276 47.9964C22.3918 50.2578 24.4936 52.1202 28.0854 52.1202C32.0762 52.1202 34.8166 49.9918 34.8166 45.3358V29.9578H30.2936V45.2294C30.2936 47.5175 29.3624 48.1028 27.8991 48.1028C26.356 48.1028 25.7175 47.0386 24.9991 45.7881L21.3276 47.9964ZM37.2377 47.5175C38.5679 50.1248 41.2551 52.1202 45.4588 52.1202C49.7156 52.1202 52.9083 49.912 52.9083 45.8413C52.9083 42.09 50.7533 40.4138 46.9221 38.7643L45.8046 38.2854C43.8624 37.4606 43.0377 36.9019 43.0377 35.5716C43.0377 34.4808 43.8624 33.6294 45.1927 33.6294C46.4698 33.6294 47.3212 34.1881 48.0927 35.5716L51.578 33.2569C50.1147 30.7028 48.0395 29.7184 45.1927 29.7184C41.1753 29.7184 38.5945 32.2725 38.5945 35.6514C38.5945 39.323 40.7496 41.0523 43.9955 42.4358L45.1129 42.9147C47.1881 43.8193 48.412 44.378 48.412 45.9211C48.412 47.1982 47.2147 48.1294 45.3523 48.1294C43.1441 48.1294 41.867 46.9854 40.9092 45.389L37.2377 47.5175Z" fill="white"/>
</svg>
