<svg width="57" height="57" viewBox="0 0 57 57" fill="none" xmlns="http://www.w3.org/2000/svg">
<g clip-path="url(#clip0_287_29)">
<path d="M28.1094 56.6954C27.3665 56.694 26.6374 56.4951 25.9967 56.1192L19.2502 52.0685C18.2445 51.4993 18.7369 51.2933 19.0687 51.178C20.14 50.8437 21.1644 50.3743 22.1171 49.7812C22.1977 49.7435 22.2867 49.7272 22.3754 49.734C22.4641 49.7407 22.5495 49.7702 22.6235 49.8197L27.8021 52.9415C27.8985 52.9941 28.0065 53.0216 28.1164 53.0216C28.2262 53.0216 28.3342 52.9941 28.4306 52.9415L48.6282 41.1107C48.7226 41.0521 48.8005 40.9704 48.8543 40.8732C48.9081 40.7759 48.936 40.6666 48.9355 40.5555V16.8799C48.9358 16.767 48.9074 16.6559 48.8531 16.5569C48.7987 16.458 48.7202 16.3745 48.6247 16.3142L28.4411 4.49385C28.3465 4.43964 28.2394 4.41111 28.1303 4.41111C28.0213 4.41111 27.9141 4.43964 27.8195 4.49385L7.62197 16.3212C7.52504 16.3795 7.44485 16.462 7.38917 16.5605C7.3335 16.659 7.30422 16.7702 7.3042 16.8834V40.5485C7.30386 40.6598 7.33311 40.7692 7.38894 40.8656C7.44477 40.9619 7.52519 41.0417 7.62197 41.0967L13.1567 44.3408C16.1598 45.8633 17.9966 44.0684 17.9966 42.2665V18.9017C17.9962 18.8244 18.011 18.7477 18.0403 18.6762C18.0695 18.6046 18.1127 18.5395 18.1672 18.4846C18.2217 18.4298 18.2866 18.3863 18.358 18.3566C18.4294 18.3269 18.5059 18.3116 18.5833 18.3116H21.1429C21.2199 18.312 21.2961 18.3277 21.3671 18.3576C21.4381 18.3875 21.5025 18.4311 21.5567 18.4859C21.6108 18.5407 21.6537 18.6056 21.6827 18.677C21.7118 18.7483 21.7265 18.8247 21.726 18.9017V42.263C21.84 43.094 21.7675 43.9399 21.5136 44.7393C21.2598 45.5388 20.831 46.2716 20.2585 46.8845C19.686 47.4975 18.9841 47.9753 18.2038 48.283C17.4236 48.5908 16.5846 48.7209 15.7478 48.6638C14.1049 48.6923 12.4886 48.2461 11.093 47.3788L5.79567 44.2849C5.14828 43.8989 4.61244 43.3512 4.24081 42.6955C3.86918 42.0398 3.67455 41.2987 3.67604 40.545V16.8799C3.67412 16.1266 3.8686 15.3858 4.2403 14.7306C4.612 14.0753 5.14808 13.5283 5.79567 13.1435L25.9967 1.2987C26.646 0.937261 27.3768 0.747559 28.1198 0.747559C28.8629 0.747559 29.5937 0.937261 30.243 1.2987L50.4405 13.1435C51.0883 13.5284 51.6247 14.0753 51.997 14.7305C52.3692 15.3856 52.5645 16.1264 52.5637 16.8799V40.5415C52.5638 41.2953 52.3682 42.0363 51.996 42.6918C51.6238 43.3474 51.0879 43.8951 50.4405 44.2814L30.243 56.1192C29.5982 56.4975 28.8639 56.6964 28.1164 56.6954H28.1094ZM34.3495 40.3913C25.5079 40.3913 23.6571 36.2708 23.6571 32.8172C23.6547 32.7383 23.6684 32.6597 23.6973 32.5862C23.7262 32.5128 23.7697 32.4459 23.8252 32.3897C23.8808 32.3336 23.9471 32.2893 24.0202 32.2595C24.0934 32.2298 24.1718 32.2152 24.2507 32.2166H26.8523C26.9932 32.2169 27.1293 32.2678 27.2357 32.3601C27.3422 32.4525 27.4118 32.58 27.4319 32.7195C27.8265 35.4188 28.9998 36.7806 34.346 36.7806C38.5993 36.7806 40.4116 35.8029 40.4116 33.5121C40.4116 32.1887 39.9018 31.2109 33.2845 30.551C27.7602 29.9957 24.338 28.7561 24.338 24.2654C24.338 20.1274 27.7741 17.6621 33.5324 17.6621C40.003 17.6621 43.2052 19.9423 43.6102 24.8346C43.617 24.9167 43.6068 24.9994 43.5804 25.0775C43.5539 25.1555 43.5118 25.2274 43.4566 25.2886C43.4023 25.3486 43.336 25.3968 43.2621 25.4298C43.1881 25.4629 43.1081 25.4802 43.0271 25.4806H40.4081C40.275 25.4794 40.1462 25.4327 40.0433 25.3482C39.9404 25.2637 39.8695 25.1465 39.8424 25.0162C39.2138 22.1772 37.6809 21.2693 33.5359 21.2693C28.8881 21.2693 28.3503 22.9105 28.3503 24.1432C28.3503 25.6378 28.9894 26.0708 35.2609 26.9123C41.4697 27.7434 44.4204 28.9237 44.4204 33.3515C44.4204 37.7793 40.7538 40.3774 34.353 40.3774L34.3495 40.3913Z" fill="white"/>
</g>
<defs>
<clipPath id="clip0_287_29">
<rect width="55.8716" height="55.8716" fill="white" transform="translate(0.15625 0.788818)"/>
</clipPath>
</defs>
</svg>
