<svg width="56" height="56" viewBox="0 0 56 56" fill="none" xmlns="http://www.w3.org/2000/svg">
<path d="M27.8861 3.48279C15.4756 3.48279 16.2508 8.89185 16.2508 8.89185V14.4965H28.1096V16.1796H11.5611C11.5611 16.1796 3.62036 15.2752 3.62036 27.8637C3.62036 40.4523 10.5519 40.0053 10.5519 40.0053H14.6864V34.1633C14.6324 33.246 14.7705 32.3275 15.0919 31.4666C15.4133 30.6058 15.9109 29.8216 16.5529 29.1641C17.1949 28.5067 17.9671 27.9906 18.82 27.6488C19.673 27.307 20.5879 27.1471 21.5062 27.1793H33.2567C34.1177 27.2175 34.9773 27.0792 35.7828 26.773C36.5883 26.4668 37.3227 25.9991 37.9409 25.3986C38.559 24.7981 39.0478 24.0776 39.3772 23.2813C39.7067 22.485 39.8698 21.6297 39.8566 20.7681V10.0058C39.8566 10.0058 40.8588 3.48279 27.8861 3.48279ZM21.3561 7.25063C21.7799 7.24855 22.1948 7.37233 22.5482 7.60628C22.9016 7.84022 23.1776 8.17381 23.3412 8.56476C23.5048 8.95571 23.5487 9.38643 23.4673 9.80235C23.3859 10.2183 23.1828 10.6007 22.8839 10.9011C22.585 11.2015 22.2036 11.4064 21.788 11.4899C21.3725 11.5733 20.9416 11.5315 20.5498 11.3698C20.1581 11.2081 19.8232 10.9338 19.5875 10.5815C19.3518 10.2293 19.226 9.81502 19.226 9.39121C19.2251 9.11072 19.2795 8.83281 19.3861 8.57338C19.4927 8.31394 19.6494 8.07806 19.8472 7.87924C20.045 7.68043 20.2801 7.52257 20.5391 7.41471C20.798 7.30684 21.0756 7.25108 21.3561 7.25063ZM28.2458 52.3704C40.6562 52.3704 39.881 46.9613 39.881 46.9613V41.3567H28.0223V39.6736H44.5707C44.5707 39.6736 52.508 40.578 52.508 27.9895C52.508 15.4009 45.5764 15.8479 45.5764 15.8479H41.4454V21.6899C41.4995 22.6072 41.3614 23.5257 41.04 24.3866C40.7186 25.2474 40.2209 26.0317 39.5789 26.6891C38.937 27.3465 38.1648 27.8626 37.3118 28.2044C36.4588 28.5462 35.5439 28.7061 34.6256 28.6739H22.8751C22.0142 28.6357 21.1545 28.774 20.349 29.0802C19.5435 29.3864 18.8091 29.8541 18.191 30.4546C17.5729 31.0551 17.0841 31.7756 16.7546 32.5719C16.4252 33.3682 16.262 34.2235 16.2753 35.0851V45.8649C16.2753 45.8649 15.2731 52.3704 28.2458 52.3704ZM34.7757 48.6026C34.3519 48.6046 33.9371 48.4809 33.5837 48.2469C33.2303 48.013 32.9543 47.6794 32.7907 47.2884C32.627 46.8975 32.5831 46.4668 32.6646 46.0508C32.746 45.6349 32.949 45.2525 33.2479 44.9521C33.5469 44.6517 33.9283 44.4468 34.3438 44.3633C34.7593 44.2799 35.1902 44.3217 35.582 44.4834C35.9737 44.6451 36.3087 44.9194 36.5444 45.2717C36.78 45.6239 36.9058 46.0382 36.9058 46.462C36.9068 46.7425 36.8524 47.0204 36.7458 47.2798C36.6392 47.5393 36.4825 47.7751 36.2846 47.974C36.0868 48.1728 35.8517 48.3306 35.5928 48.4385C35.3339 48.5464 35.0562 48.6021 34.7757 48.6026Z" fill="white"/>
</svg>
