<svg width="57" height="56" viewBox="0 0 57 56" fill="none" xmlns="http://www.w3.org/2000/svg">
<g clip-path="url(#clip0_287_21)">
<path d="M33.4838 27.7985C33.4838 23.9744 29.343 21.5713 26.0483 23.4834C22.7535 25.3954 22.7535 30.2015 26.0483 32.1136C29.343 34.0256 33.4838 31.6226 33.4838 27.7985ZM44.8339 18.6135C48.1142 2.93339 40.8974 -1.98714 28.6289 9.36288C17.0821 -1.46228 8.85932 1.94929 12.3584 18.5479C-3.77688 23.4121 -2.70783 32.5688 12.4896 37.2459C9.01241 52.5323 15.5075 58.1089 28.6289 46.5621C41.3567 57.9777 48.1116 52.6329 44.637 37.1803C61.2138 31.5599 59.7267 23.4247 44.8339 18.6135ZM42.6032 18.023C40.0027 17.4364 37.4864 17.0094 34.9272 16.7765C33.5788 14.8049 32.0083 12.8354 30.2035 11.0031C40.0397 1.56815 45.8369 4.5162 42.6032 18.023ZM17.2133 30.8164C18.1865 32.894 19.4658 34.7966 20.428 36.393C18.8612 36.2327 17.1732 35.9894 15.3763 35.6713C15.9521 34.0596 16.565 32.4412 17.2133 30.8164ZM17.0821 25.1742C16.3663 23.456 15.7131 21.7976 15.1795 20.2537C17.0344 19.8692 18.8522 19.52 20.428 19.4008C19.2552 21.2432 18.1412 23.1696 17.0821 25.1742ZM18.4598 28.0609C20.0642 24.8479 21.7613 21.7981 23.6428 19.0727C26.9813 18.8807 30.2844 18.8977 33.5495 19.1383C35.3807 21.69 37.0898 24.7397 38.7324 28.0609C37.5032 30.601 35.7578 33.5284 33.7463 36.6554C30.3878 36.9097 26.944 36.8746 23.446 36.6554C21.6731 33.9393 20.008 31.0785 18.4598 28.0609ZM39.9789 30.8164C40.616 32.3623 41.2048 33.9379 41.7503 35.5401C40.0665 35.8947 38.4054 36.153 36.7642 36.3274C37.8876 34.5869 38.9532 32.7389 39.9789 30.8164ZM36.7642 19.4008C38.5531 19.6456 40.2811 19.9515 41.9472 20.3193C41.3898 21.9756 40.7565 23.5943 40.0446 25.1742C39.0291 23.1713 37.9388 21.2436 36.7642 19.4008ZM31.7125 16.5141C29.6691 16.4339 27.5905 16.4365 25.4798 16.5141C26.4038 15.2988 27.4337 14.0293 28.5633 12.7088C29.6641 13.8971 30.7071 15.1761 31.7125 16.5141ZM26.9887 11.0031C25.1839 12.8354 23.6134 14.7393 22.265 16.7109C19.7058 16.9438 17.1239 17.3708 14.5234 17.9574C11.4399 4.24553 17.1525 1.56815 26.9887 11.0031ZM13.08 35.0809C-0.588094 30.9695 0.0679774 24.5619 12.9488 20.7785C13.7368 23.1695 14.6907 25.5978 15.7699 27.9297C14.7212 30.3412 13.7928 32.8181 13.08 35.0809ZM14.7858 37.8364C17.104 38.4049 19.5605 38.6779 22.1338 38.9517C23.6822 41.1368 25.2856 43.1683 26.9887 44.9219C16.9727 54.5224 11.3891 51.0343 14.7858 37.8364ZM28.5633 43.2817C27.3764 42.0527 26.2683 40.66 25.2174 39.1485C27.5599 39.1979 29.8224 39.2033 31.9749 39.1485C30.9324 40.6274 29.7939 42.0037 28.5633 43.2817ZM30.2035 44.9219C32.031 42.9364 33.642 40.9235 35.0584 38.8861C37.476 38.7082 39.9253 38.3367 42.4064 37.7707C45.8338 51.8187 39.6106 53.8931 30.2035 44.9219ZM44.0466 34.9496C43.3438 32.6869 42.4563 30.3412 41.4223 27.9297C42.4865 25.5978 43.4009 23.2351 44.1778 20.8441C56.7525 24.6493 57.7585 30.7289 44.0466 34.9496Z" fill="white"/>
</g>
<defs>
<clipPath id="clip0_287_21">
<rect width="55.8716" height="55.8716" fill="white" transform="translate(0.669922 -0.00915527)"/>
</clipPath>
</defs>
</svg>
