<svg width="189" height="28" viewBox="0 0 189 28" fill="none" xmlns="http://www.w3.org/2000/svg">
<path d="M27.4725 0V16.4828H16.4827V10.986H21.9795V5.493H16.4827V10.986H10.9897V0H27.4725Z" fill="white"/>
<path d="M16.4828 16.4826V27.4724H10.9898V21.9756H5.493V16.4826H0V10.9858H10.9898V16.4826H16.4828Z" fill="white"/>
<path d="M33.4102 3.28516H36.8762V9.47891C37.8031 8.5295 39.0614 7.98322 40.5307 7.98322C43.8762 7.98322 46.3703 10.7146 46.3703 14.3201C46.3703 17.9256 43.8762 20.657 40.5307 20.657C39.0576 20.657 37.7993 20.1108 36.8762 19.1614V20.3707H33.4102V3.28516ZM42.81 14.3239C42.81 12.6135 41.5517 11.3325 39.8413 11.3325C38.1308 11.3325 36.8725 12.6135 36.8725 14.3239C36.8725 16.0343 38.1308 17.3153 39.8413 17.3153C41.5517 17.3115 42.81 16.0306 42.81 14.3239Z" fill="white"/>
<path d="M47.7454 14.324C47.7454 10.7147 50.5446 7.98706 54.2744 7.98706C58.0005 7.98706 60.8035 10.7185 60.8035 14.324C60.8035 17.9295 58.0042 20.6609 54.2744 20.6609C50.5446 20.6609 47.7454 17.9295 47.7454 14.324ZM57.2394 14.324C57.2394 12.6135 55.9811 11.3326 54.2707 11.3326C52.5602 11.3326 51.3019 12.6135 51.3019 14.324C51.3019 16.0344 52.5602 17.3154 54.2707 17.3154C55.9811 17.3116 57.2394 16.0307 57.2394 14.324Z" fill="white"/>
<path d="M62.1299 14.324C62.1299 10.7147 64.9291 7.98706 68.6589 7.98706C72.385 7.98706 75.188 10.7185 75.188 14.324C75.188 17.9295 72.3888 20.6609 68.6589 20.6609C64.9291 20.6609 62.1299 17.9295 62.1299 14.324ZM71.624 14.324C71.624 12.6135 70.3656 11.3326 68.6552 11.3326C66.9447 11.3326 65.6864 12.6135 65.6864 14.324C65.6864 16.0344 66.9447 17.3154 68.6552 17.3154C70.3656 17.3116 71.624 16.0307 71.624 14.324Z" fill="white"/>
<path d="M76.4915 16.6974H79.9575C79.9575 17.4094 80.6696 17.9067 81.668 17.9067C82.5458 17.9067 83.1863 17.5036 83.1863 16.9573C83.1863 15.1753 76.6836 16.2679 76.6836 11.9013C76.6836 9.33945 78.8424 7.98315 81.5022 7.98315C84.3994 7.98315 86.4376 9.59564 86.4376 11.7808H82.9941C82.9941 11.1403 82.3537 10.7108 81.4758 10.7108C80.6922 10.7108 80.1007 11.0687 80.1007 11.6112C80.1007 13.3217 86.6298 12.2743 86.6298 16.5956C86.6298 19.0181 84.6142 20.6532 81.668 20.6532C78.5786 20.6608 76.4915 18.9503 76.4915 16.6974Z" fill="white"/>
<path d="M89.3537 16.5316V11.4266H87.5491V8.26947H88.5475C89.2105 8.26947 89.5458 7.93793 89.5458 7.27108V5.08594H92.8198V8.2657H96.7832V11.4229H92.8198V16.1925C92.8198 16.8104 93.2455 17.2135 93.8408 17.2135C94.5039 17.2135 94.9108 16.7388 94.9108 15.9551H97.9963C97.9963 18.6376 96.2859 20.3706 93.6298 20.3706C91.0868 20.3744 89.3537 18.8335 89.3537 16.5316Z" fill="white"/>
<path d="M99.0625 4.63773C99.0625 3.42837 99.9893 2.52417 101.199 2.52417C102.434 2.52417 103.357 3.4246 103.357 4.63773C103.357 5.87347 102.431 6.7739 101.199 6.7739C99.9893 6.7739 99.0625 5.87347 99.0625 4.63773ZM99.4656 8.26959H102.932V20.3745H99.4656V8.26959Z" fill="white"/>
<path d="M105.735 8.26948H109.201V9.45624C110.15 8.48423 111.386 7.98315 112.882 7.98315C115.658 7.98315 117.512 9.81039 117.512 12.587V16.0531C117.512 16.671 117.866 17.0251 118.484 17.0251H118.721V20.3707H117.749C115.304 20.3707 114.046 19.1613 114.046 16.8104V13.7474C114.046 12.2743 113.119 11.3249 111.721 11.3249C110.225 11.3249 109.204 12.2969 109.204 13.7926V20.3669H105.738V8.26948H105.735Z" fill="white"/>
<path d="M119.739 14.015C119.739 10.5716 122.233 7.98706 125.578 7.98706C127.051 7.98706 128.31 8.51074 129.233 9.41117V8.27339H132.699V19.0748C132.699 22.7556 130.205 25.1744 126.456 25.1744C123.299 25.1744 120.854 23.4903 120.379 20.8078H123.962C124.316 21.6141 125.314 22.1604 126.501 22.1604C128.163 22.1604 129.233 21.0678 129.233 19.2406V18.6227C128.306 19.5231 127.047 20.0468 125.578 20.0468C122.229 20.043 119.739 17.4322 119.739 14.015ZM129.233 14.015C129.233 12.4026 127.952 11.1894 126.264 11.1894C124.553 11.1894 123.295 12.3988 123.295 14.015C123.295 15.6049 124.553 16.8407 126.264 16.8407C127.952 16.8369 129.233 15.6049 129.233 14.015Z" fill="white"/>
<path d="M135.95 3.99731H142.264C147.011 3.99731 150.572 7.50861 150.572 12.1878C150.572 16.8671 147.011 20.3784 142.264 20.3784H135.95V3.99731ZM138.135 6.03929V18.3364H142.242C145.708 18.3364 148.341 15.7029 148.341 12.1878C148.341 8.67653 145.708 6.03929 142.242 6.03929H138.135Z" fill="white"/>
<path d="M152.659 14.324C152.659 10.7147 155.436 7.98706 159.09 7.98706C162.771 7.98706 165.521 10.7185 165.521 14.324C165.521 14.6103 165.499 14.9192 165.472 15.1792H154.837C155.194 17.3154 156.901 18.7885 159.18 18.7885C160.865 18.7885 162.338 17.9822 163.027 16.7691H165.306C164.357 19.0936 162.006 20.6609 159.158 20.6609C155.439 20.6609 152.659 17.9295 152.659 14.324ZM154.867 13.3482H163.362C163.004 11.3288 161.298 9.8595 159.09 9.8595C156.931 9.8595 155.27 11.2836 154.867 13.3482Z" fill="white"/>
<path d="M166.071 8.26953H168.396L172.48 17.9294L176.564 8.26953H178.843L173.527 20.3745H171.391L166.071 8.26953Z" fill="white"/>
<path d="M179.766 16.9348H181.853C181.853 18.0726 182.897 18.8111 184.464 18.8111C185.937 18.8111 186.909 18.1216 186.909 17.1496C186.909 14.5387 179.954 15.9139 179.954 11.6415C179.954 9.43378 181.71 7.98706 184.347 7.98706C187.052 7.98706 188.808 9.41117 188.808 11.5699H186.721C186.721 10.5263 185.771 9.8369 184.325 9.8369C182.949 9.8369 182.045 10.4774 182.045 11.4042C182.045 13.9435 189 12.5909 189 16.9348C189 19.1652 187.195 20.6609 184.441 20.6609C181.619 20.6609 179.766 19.1652 179.766 16.9348Z" fill="white"/>
</svg>
