<svg width="18" height="18" viewBox="0 0 22 22" fill="none" xmlns="http://www.w3.org/2000/svg">
<path d="M18.6239 3.80923C17.2217 3.16584 15.7181 2.69182 14.1459 2.42033C14.1173 2.41509 14.0887 2.42818 14.0739 2.45437C13.8805 2.79832 13.6663 3.24703 13.5163 3.59971C11.8254 3.34655 10.1431 3.34655 8.48679 3.59971C8.33676 3.23919 8.11478 2.79832 7.92053 2.45437C7.90578 2.42906 7.87718 2.41596 7.84855 2.42033C6.27725 2.69095 4.7736 3.16498 3.37052 3.80923C3.35838 3.81447 3.34797 3.82321 3.34106 3.83455C0.488942 8.09555 -0.292371 12.2518 0.0909151 16.3565C0.0926494 16.3766 0.103922 16.3958 0.119532 16.408C2.00127 17.79 3.82406 18.6289 5.61301 19.185C5.64164 19.1937 5.67197 19.1832 5.69019 19.1597C6.11337 18.5818 6.49059 17.9724 6.81402 17.3316C6.83311 17.2941 6.81489 17.2496 6.77588 17.2348C6.17754 17.0078 5.6078 16.731 5.05975 16.4168C5.0164 16.3915 5.01293 16.3295 5.05281 16.2998C5.16814 16.2134 5.2835 16.1234 5.39363 16.0327C5.41355 16.0161 5.44131 16.0126 5.46474 16.023C9.06518 17.6669 12.9631 17.6669 16.521 16.023C16.5445 16.0117 16.5722 16.0152 16.593 16.0318C16.7032 16.1226 16.8185 16.2134 16.9347 16.2998C16.9746 16.3295 16.972 16.3915 16.9286 16.4168C16.3806 16.7371 15.8108 17.0078 15.2116 17.2339C15.1726 17.2487 15.1553 17.2941 15.1744 17.3316C15.5047 17.9715 15.882 18.5809 16.2973 19.1588C16.3147 19.1832 16.3459 19.1937 16.3745 19.185C18.1721 18.6289 19.9949 17.79 21.8766 16.408C21.8931 16.3958 21.9035 16.3775 21.9053 16.3574C22.364 11.6119 21.1369 7.48971 18.6525 3.83542C18.6465 3.82321 18.6361 3.81447 18.6239 3.80923ZM7.35169 13.8572C6.26771 13.8572 5.37454 12.862 5.37454 11.6398C5.37454 10.4177 6.25039 9.42249 7.35169 9.42249C8.46163 9.42249 9.34616 10.4264 9.32881 11.6398C9.32881 12.862 8.45296 13.8572 7.35169 13.8572ZM14.6619 13.8572C13.5779 13.8572 12.6847 12.862 12.6847 11.6398C12.6847 10.4177 13.5606 9.42249 14.6619 9.42249C15.7718 9.42249 16.6563 10.4264 16.639 11.6398C16.639 12.862 15.7718 13.8572 14.6619 13.8572Z" fill="white"/>
</svg>
